<svg xmlns="http://www.w3.org/2000/svg" width="1254" height="1254" viewBox="0 0 1254 1254" role="img" aria-labelledby="title desc">
  <title id="title">Mnema flashcards brain icon corrected</title>
  <desc id="desc">Vectorized SVG of stacked flashcards with a centered brain icon and radiating lines, matching the provided reference image.</desc>
  <rect width="100%" height="100%" rx="280" ry="280" fill="#0B0F19"/>
  <path d="M 537.0 688.0 L 535.0 693.0 L 535.0 703.0 L 536.0 704.0 L 536.0 707.0 L 539.0 715.0 L 543.0 721.0 L 553.0 730.0 L 563.0 734.0 L 567.0 733.0 L 571.0 729.0 L 571.0 722.0 L 567.0 717.0 L 563.0 716.0 L 555.0 709.0 L 552.0 703.0 L 552.0 690.0 L 551.0 688.0 L 547.0 685.0 L 541.0 685.0 Z
    M 823.0 631.0 L 823.0 635.0 L 824.0 637.0 L 827.0 640.0 L 829.0 641.0 L 833.0 641.0 L 834.0 642.0 L 845.0 643.0 L 846.0 644.0 L 856.0 645.0 L 857.0 646.0 L 867.0 647.0 L 868.0 648.0 L 873.0 648.0 L 874.0 649.0 L 878.0 649.0 L 880.0 648.0 L 884.0 643.0 L 884.0 638.0 L 883.0 636.0 L 877.0 632.0 L 860.0 630.0 L 859.0 629.0 L 849.0 628.0 L 848.0 627.0 L 838.0 626.0 L 837.0 625.0 L 829.0 625.0 L 827.0 626.0 Z
    M 719.0 590.0 L 716.0 590.0 L 712.0 592.0 L 705.0 599.0 L 697.0 603.0 L 694.0 603.0 L 693.0 604.0 L 673.0 604.0 L 670.0 606.0 L 668.0 610.0 L 668.0 614.0 L 672.0 619.0 L 674.0 620.0 L 679.0 620.0 L 680.0 621.0 L 686.0 621.0 L 687.0 622.0 L 689.0 622.0 L 692.0 624.0 L 698.0 631.0 L 699.0 637.0 L 700.0 638.0 L 700.0 645.0 L 699.0 646.0 L 698.0 652.0 L 694.0 659.0 L 694.0 663.0 L 696.0 667.0 L 699.0 669.0 L 706.0 669.0 L 711.0 664.0 L 713.0 660.0 L 713.0 658.0 L 715.0 655.0 L 715.0 652.0 L 716.0 651.0 L 716.0 633.0 L 715.0 632.0 L 714.0 626.0 L 711.0 621.0 L 711.0 615.0 L 714.0 612.0 L 718.0 610.0 L 725.0 602.0 L 725.0 595.0 L 723.0 592.0 Z
    M 550.0 560.0 L 548.0 561.0 L 545.0 565.0 L 545.0 571.0 L 547.0 575.0 L 558.0 587.0 L 558.0 594.0 L 551.0 608.0 L 550.0 617.0 L 549.0 618.0 L 549.0 627.0 L 552.0 632.0 L 558.0 634.0 L 563.0 632.0 L 566.0 628.0 L 566.0 618.0 L 567.0 617.0 L 568.0 611.0 L 571.0 605.0 L 578.0 598.0 L 585.0 595.0 L 589.0 595.0 L 591.0 594.0 L 595.0 589.0 L 595.0 585.0 L 593.0 581.0 L 590.0 579.0 L 578.0 578.0 L 569.0 574.0 L 561.0 566.0 L 559.0 562.0 L 556.0 560.0 Z
    M 369.0 557.0 L 370.0 558.0 L 370.0 561.0 L 375.0 565.0 L 385.0 566.0 L 386.0 567.0 L 391.0 567.0 L 392.0 568.0 L 402.0 569.0 L 403.0 570.0 L 407.0 570.0 L 408.0 571.0 L 414.0 571.0 L 415.0 572.0 L 419.0 572.0 L 420.0 573.0 L 425.0 573.0 L 431.0 568.0 L 431.0 562.0 L 430.0 560.0 L 427.0 557.0 L 425.0 557.0 L 424.0 556.0 L 407.0 554.0 L 406.0 553.0 L 396.0 552.0 L 395.0 551.0 L 390.0 551.0 L 389.0 550.0 L 385.0 550.0 L 384.0 549.0 L 374.0 549.0 L 370.0 553.0 L 370.0 556.0 Z
    M 873.0 506.0 L 870.0 502.0 L 863.0 501.0 L 862.0 502.0 L 833.0 511.0 L 830.0 513.0 L 819.0 516.0 L 814.0 519.0 L 812.0 526.0 L 815.0 531.0 L 819.0 533.0 L 823.0 533.0 L 824.0 532.0 L 826.0 532.0 L 827.0 531.0 L 844.0 526.0 L 847.0 524.0 L 849.0 524.0 L 850.0 523.0 L 852.0 523.0 L 853.0 522.0 L 869.0 517.0 L 873.0 513.0 Z
    M 606.0 433.0 L 605.0 434.0 L 597.0 435.0 L 585.0 440.0 L 574.0 448.0 L 567.0 455.0 L 555.0 455.0 L 554.0 456.0 L 549.0 456.0 L 548.0 457.0 L 545.0 457.0 L 544.0 458.0 L 539.0 459.0 L 527.0 465.0 L 511.0 480.0 L 503.0 494.0 L 503.0 496.0 L 501.0 499.0 L 500.0 503.0 L 497.0 507.0 L 477.0 525.0 L 469.0 536.0 L 464.0 546.0 L 464.0 548.0 L 461.0 555.0 L 461.0 559.0 L 460.0 560.0 L 460.0 571.0 L 459.0 572.0 L 459.0 574.0 L 460.0 575.0 L 460.0 584.0 L 461.0 585.0 L 461.0 588.0 L 460.0 589.0 L 459.0 595.0 L 454.0 605.0 L 454.0 607.0 L 452.0 610.0 L 452.0 612.0 L 449.0 619.0 L 448.0 627.0 L 447.0 628.0 L 446.0 645.0 L 447.0 646.0 L 447.0 653.0 L 448.0 654.0 L 449.0 661.0 L 452.0 667.0 L 452.0 669.0 L 460.0 682.0 L 470.0 694.0 L 470.0 696.0 L 469.0 697.0 L 469.0 717.0 L 470.0 718.0 L 470.0 721.0 L 471.0 722.0 L 473.0 730.0 L 476.0 736.0 L 480.0 742.0 L 490.0 752.0 L 499.0 758.0 L 510.0 763.0 L 512.0 763.0 L 514.0 765.0 L 517.0 772.0 L 520.0 776.0 L 530.0 786.0 L 540.0 792.0 L 542.0 792.0 L 549.0 795.0 L 553.0 795.0 L 554.0 796.0 L 567.0 796.0 L 568.0 795.0 L 572.0 795.0 L 573.0 794.0 L 579.0 793.0 L 589.0 788.0 L 592.0 785.0 L 594.0 785.0 L 605.0 797.0 L 617.0 804.0 L 623.0 805.0 L 624.0 806.0 L 628.0 806.0 L 629.0 807.0 L 645.0 807.0 L 646.0 806.0 L 656.0 804.0 L 662.0 801.0 L 668.0 797.0 L 679.0 786.0 L 685.0 786.0 L 686.0 787.0 L 699.0 786.0 L 700.0 785.0 L 703.0 785.0 L 704.0 784.0 L 709.0 783.0 L 718.0 778.0 L 727.0 770.0 L 734.0 760.0 L 739.0 748.0 L 740.0 740.0 L 741.0 739.0 L 741.0 734.0 L 743.0 732.0 L 751.0 729.0 L 760.0 723.0 L 770.0 714.0 L 776.0 706.0 L 783.0 693.0 L 783.0 691.0 L 786.0 684.0 L 786.0 681.0 L 787.0 680.0 L 787.0 676.0 L 788.0 675.0 L 788.0 667.0 L 789.0 666.0 L 788.0 639.0 L 790.0 637.0 L 796.0 625.0 L 796.0 623.0 L 798.0 619.0 L 799.0 610.0 L 800.0 609.0 L 800.0 595.0 L 799.0 594.0 L 799.0 589.0 L 798.0 588.0 L 796.0 578.0 L 790.0 565.0 L 785.0 558.0 L 782.0 550.0 L 782.0 537.0 L 781.0 536.0 L 781.0 530.0 L 780.0 529.0 L 779.0 522.0 L 774.0 511.0 L 768.0 502.0 L 755.0 490.0 L 744.0 484.0 L 737.0 482.0 L 732.0 476.0 L 730.0 471.0 L 725.0 464.0 L 718.0 457.0 L 711.0 452.0 L 703.0 448.0 L 701.0 448.0 L 697.0 446.0 L 693.0 446.0 L 692.0 445.0 L 673.0 445.0 L 672.0 446.0 L 666.0 447.0 L 656.0 452.0 L 644.0 442.0 L 633.0 436.0 L 627.0 435.0 L 626.0 434.0 L 622.0 434.0 L 621.0 433.0 Z
    M 689.0 461.0 L 690.0 462.0 L 696.0 463.0 L 705.0 468.0 L 715.0 479.0 L 718.0 485.0 L 719.0 491.0 L 720.0 492.0 L 720.0 507.0 L 719.0 508.0 L 718.0 514.0 L 715.0 520.0 L 711.0 525.0 L 703.0 531.0 L 699.0 532.0 L 693.0 536.0 L 692.0 538.0 L 692.0 544.0 L 693.0 546.0 L 697.0 549.0 L 703.0 549.0 L 713.0 545.0 L 720.0 540.0 L 728.0 531.0 L 733.0 522.0 L 733.0 520.0 L 735.0 516.0 L 735.0 513.0 L 736.0 512.0 L 737.0 502.0 L 738.0 501.0 L 740.0 501.0 L 747.0 505.0 L 758.0 517.0 L 763.0 527.0 L 764.0 534.0 L 765.0 535.0 L 765.0 550.0 L 764.0 551.0 L 764.0 554.0 L 763.0 555.0 L 762.0 560.0 L 759.0 564.0 L 758.0 567.0 L 750.0 575.0 L 749.0 577.0 L 749.0 582.0 L 753.0 587.0 L 755.0 588.0 L 759.0 588.0 L 763.0 586.0 L 771.0 578.0 L 771.0 577.0 L 775.0 574.0 L 780.0 583.0 L 781.0 589.0 L 782.0 590.0 L 782.0 595.0 L 783.0 596.0 L 783.0 608.0 L 782.0 609.0 L 782.0 613.0 L 781.0 614.0 L 780.0 619.0 L 775.0 628.0 L 764.0 639.0 L 756.0 643.0 L 751.0 643.0 L 747.0 645.0 L 745.0 647.0 L 745.0 649.0 L 744.0 650.0 L 745.0 656.0 L 747.0 658.0 L 752.0 660.0 L 762.0 658.0 L 770.0 654.0 L 772.0 655.0 L 772.0 670.0 L 771.0 671.0 L 771.0 676.0 L 770.0 677.0 L 770.0 680.0 L 768.0 683.0 L 768.0 685.0 L 761.0 698.0 L 753.0 707.0 L 742.0 715.0 L 740.0 715.0 L 736.0 717.0 L 732.0 717.0 L 726.0 721.0 L 725.0 723.0 L 725.0 735.0 L 724.0 736.0 L 724.0 740.0 L 723.0 741.0 L 723.0 744.0 L 721.0 747.0 L 721.0 749.0 L 716.0 757.0 L 707.0 765.0 L 701.0 768.0 L 695.0 769.0 L 694.0 770.0 L 690.0 770.0 L 688.0 768.0 L 688.0 765.0 L 690.0 761.0 L 690.0 757.0 L 692.0 752.0 L 694.0 738.0 L 695.0 737.0 L 695.0 719.0 L 694.0 718.0 L 694.0 715.0 L 693.0 714.0 L 692.0 709.0 L 688.0 702.0 L 681.0 694.0 L 672.0 688.0 L 670.0 688.0 L 667.0 686.0 L 661.0 685.0 L 660.0 684.0 L 654.0 684.0 L 649.0 688.0 L 648.0 690.0 L 648.0 695.0 L 652.0 700.0 L 662.0 702.0 L 669.0 706.0 L 674.0 711.0 L 677.0 716.0 L 678.0 722.0 L 679.0 723.0 L 679.0 732.0 L 678.0 733.0 L 678.0 738.0 L 677.0 739.0 L 677.0 743.0 L 676.0 744.0 L 675.0 752.0 L 674.0 753.0 L 671.0 764.0 L 664.0 777.0 L 656.0 785.0 L 649.0 789.0 L 642.0 790.0 L 641.0 791.0 L 632.0 791.0 L 631.0 790.0 L 624.0 789.0 L 618.0 786.0 L 610.0 779.0 L 606.0 771.0 L 606.0 761.0 L 607.0 760.0 L 607.0 756.0 L 608.0 755.0 L 608.0 751.0 L 609.0 750.0 L 609.0 745.0 L 610.0 744.0 L 610.0 740.0 L 611.0 739.0 L 611.0 734.0 L 612.0 733.0 L 612.0 728.0 L 614.0 723.0 L 614.0 718.0 L 615.0 717.0 L 615.0 713.0 L 616.0 712.0 L 616.0 708.0 L 617.0 707.0 L 617.0 703.0 L 618.0 702.0 L 618.0 697.0 L 619.0 696.0 L 619.0 692.0 L 620.0 691.0 L 620.0 687.0 L 621.0 686.0 L 621.0 682.0 L 622.0 681.0 L 622.0 677.0 L 623.0 676.0 L 623.0 672.0 L 624.0 671.0 L 624.0 667.0 L 625.0 666.0 L 625.0 661.0 L 626.0 660.0 L 627.0 650.0 L 628.0 649.0 L 628.0 645.0 L 629.0 644.0 L 629.0 639.0 L 630.0 638.0 L 630.0 634.0 L 631.0 633.0 L 631.0 629.0 L 632.0 628.0 L 632.0 624.0 L 633.0 623.0 L 633.0 618.0 L 634.0 617.0 L 634.0 613.0 L 635.0 612.0 L 635.0 608.0 L 636.0 607.0 L 636.0 603.0 L 637.0 602.0 L 637.0 598.0 L 638.0 597.0 L 638.0 593.0 L 639.0 592.0 L 639.0 587.0 L 640.0 586.0 L 640.0 582.0 L 641.0 581.0 L 641.0 577.0 L 642.0 576.0 L 644.0 559.0 L 645.0 558.0 L 645.0 554.0 L 646.0 553.0 L 646.0 548.0 L 647.0 547.0 L 647.0 543.0 L 648.0 542.0 L 648.0 538.0 L 649.0 537.0 L 649.0 532.0 L 650.0 531.0 L 650.0 527.0 L 651.0 526.0 L 651.0 521.0 L 652.0 520.0 L 652.0 516.0 L 653.0 515.0 L 653.0 511.0 L 654.0 510.0 L 654.0 505.0 L 655.0 504.0 L 655.0 500.0 L 656.0 499.0 L 656.0 494.0 L 657.0 493.0 L 657.0 489.0 L 658.0 488.0 L 660.0 474.0 L 661.0 472.0 L 671.0 463.0 L 677.0 462.0 L 678.0 461.0 Z
    M 622.0 450.0 L 623.0 451.0 L 626.0 451.0 L 634.0 455.0 L 640.0 461.0 L 643.0 466.0 L 643.0 477.0 L 642.0 478.0 L 642.0 483.0 L 641.0 484.0 L 641.0 488.0 L 640.0 489.0 L 640.0 494.0 L 639.0 495.0 L 639.0 499.0 L 638.0 500.0 L 638.0 505.0 L 637.0 506.0 L 637.0 510.0 L 636.0 511.0 L 636.0 515.0 L 635.0 516.0 L 635.0 521.0 L 634.0 522.0 L 634.0 526.0 L 633.0 527.0 L 633.0 531.0 L 632.0 532.0 L 632.0 536.0 L 631.0 537.0 L 631.0 541.0 L 630.0 542.0 L 630.0 547.0 L 629.0 548.0 L 628.0 558.0 L 627.0 559.0 L 627.0 563.0 L 626.0 564.0 L 626.0 568.0 L 625.0 569.0 L 625.0 574.0 L 624.0 575.0 L 623.0 585.0 L 622.0 586.0 L 622.0 590.0 L 621.0 591.0 L 621.0 595.0 L 620.0 596.0 L 620.0 601.0 L 619.0 602.0 L 619.0 606.0 L 618.0 607.0 L 618.0 611.0 L 617.0 612.0 L 617.0 616.0 L 616.0 617.0 L 616.0 621.0 L 615.0 622.0 L 615.0 627.0 L 614.0 628.0 L 614.0 632.0 L 613.0 633.0 L 613.0 637.0 L 612.0 638.0 L 612.0 643.0 L 611.0 644.0 L 611.0 649.0 L 610.0 650.0 L 610.0 654.0 L 609.0 655.0 L 609.0 659.0 L 608.0 660.0 L 608.0 664.0 L 607.0 665.0 L 607.0 670.0 L 606.0 671.0 L 606.0 675.0 L 605.0 676.0 L 605.0 680.0 L 604.0 681.0 L 604.0 686.0 L 603.0 687.0 L 603.0 691.0 L 602.0 692.0 L 602.0 696.0 L 601.0 697.0 L 601.0 701.0 L 600.0 702.0 L 600.0 706.0 L 599.0 707.0 L 599.0 711.0 L 598.0 712.0 L 598.0 717.0 L 597.0 718.0 L 596.0 728.0 L 595.0 729.0 L 595.0 733.0 L 594.0 734.0 L 594.0 738.0 L 593.0 739.0 L 593.0 744.0 L 592.0 745.0 L 592.0 749.0 L 591.0 750.0 L 591.0 754.0 L 590.0 755.0 L 590.0 760.0 L 588.0 765.0 L 585.0 769.0 L 578.0 775.0 L 569.0 779.0 L 553.0 779.0 L 552.0 778.0 L 547.0 777.0 L 540.0 773.0 L 533.0 766.0 L 528.0 757.0 L 527.0 753.0 L 523.0 749.0 L 513.0 746.0 L 502.0 740.0 L 493.0 731.0 L 488.0 722.0 L 488.0 720.0 L 486.0 716.0 L 486.0 710.0 L 485.0 709.0 L 485.0 704.0 L 486.0 703.0 L 486.0 698.0 L 487.0 697.0 L 488.0 691.0 L 493.0 681.0 L 496.0 677.0 L 511.0 662.0 L 524.0 653.0 L 525.0 651.0 L 525.0 646.0 L 524.0 644.0 L 519.0 640.0 L 514.0 640.0 L 498.0 651.0 L 482.0 667.0 L 480.0 671.0 L 477.0 674.0 L 473.0 671.0 L 469.0 665.0 L 465.0 655.0 L 465.0 652.0 L 464.0 651.0 L 464.0 646.0 L 463.0 645.0 L 463.0 634.0 L 464.0 633.0 L 464.0 628.0 L 465.0 627.0 L 466.0 620.0 L 471.0 610.0 L 471.0 608.0 L 473.0 607.0 L 479.0 613.0 L 489.0 619.0 L 496.0 619.0 L 499.0 617.0 L 501.0 613.0 L 501.0 610.0 L 499.0 606.0 L 490.0 600.0 L 485.0 595.0 L 479.0 585.0 L 479.0 583.0 L 477.0 579.0 L 477.0 574.0 L 476.0 573.0 L 477.0 561.0 L 478.0 560.0 L 478.0 557.0 L 482.0 547.0 L 490.0 536.0 L 498.0 529.0 L 500.0 530.0 L 502.0 540.0 L 508.0 550.0 L 511.0 552.0 L 516.0 552.0 L 522.0 547.0 L 522.0 541.0 L 518.0 535.0 L 518.0 533.0 L 516.0 529.0 L 516.0 524.0 L 515.0 523.0 L 515.0 515.0 L 516.0 514.0 L 516.0 509.0 L 517.0 508.0 L 518.0 502.0 L 525.0 490.0 L 533.0 482.0 L 540.0 477.0 L 550.0 473.0 L 553.0 473.0 L 554.0 472.0 L 558.0 472.0 L 559.0 473.0 L 558.0 475.0 L 558.0 479.0 L 557.0 480.0 L 556.0 495.0 L 557.0 496.0 L 558.0 506.0 L 560.0 509.0 L 561.0 513.0 L 565.0 519.0 L 573.0 527.0 L 580.0 531.0 L 585.0 532.0 L 590.0 530.0 L 593.0 525.0 L 593.0 522.0 L 591.0 518.0 L 589.0 516.0 L 584.0 514.0 L 578.0 508.0 L 574.0 500.0 L 574.0 497.0 L 573.0 496.0 L 573.0 485.0 L 574.0 484.0 L 575.0 477.0 L 580.0 467.0 L 587.0 459.0 L 594.0 454.0 L 598.0 452.0 L 600.0 452.0 L 604.0 450.0 L 608.0 450.0 L 609.0 449.0 L 617.0 449.0 L 618.0 450.0 Z
    M 429.0 433.0 L 428.0 435.0 L 428.0 441.0 L 429.0 443.0 L 445.0 455.0 L 449.0 459.0 L 454.0 462.0 L 458.0 466.0 L 463.0 469.0 L 467.0 473.0 L 469.0 474.0 L 475.0 474.0 L 479.0 471.0 L 480.0 469.0 L 480.0 462.0 L 448.0 436.0 L 439.0 430.0 L 433.0 430.0 Z
    M 795.0 394.0 L 793.0 393.0 L 788.0 393.0 L 786.0 394.0 L 763.0 420.0 L 759.0 426.0 L 752.0 433.0 L 752.0 435.0 L 751.0 436.0 L 751.0 441.0 L 753.0 444.0 L 756.0 446.0 L 762.0 446.0 L 764.0 445.0 L 782.0 425.0 L 782.0 424.0 L 787.0 419.0 L 799.0 403.0 L 799.0 399.0 Z
    M 540.0 356.0 L 536.0 358.0 L 533.0 362.0 L 533.0 367.0 L 534.0 368.0 L 534.0 370.0 L 537.0 375.0 L 537.0 377.0 L 539.0 380.0 L 539.0 382.0 L 541.0 385.0 L 543.0 392.0 L 546.0 397.0 L 546.0 399.0 L 548.0 402.0 L 548.0 404.0 L 550.0 407.0 L 551.0 411.0 L 555.0 415.0 L 562.0 415.0 L 564.0 414.0 L 567.0 410.0 L 567.0 404.0 L 565.0 401.0 L 565.0 399.0 L 563.0 396.0 L 563.0 394.0 L 561.0 391.0 L 559.0 384.0 L 556.0 379.0 L 556.0 377.0 L 554.0 374.0 L 554.0 372.0 L 552.0 369.0 L 552.0 367.0 L 550.0 364.0 L 549.0 360.0 L 546.0 357.0 Z
    M 675.0 332.0 L 670.0 332.0 L 668.0 333.0 L 664.0 337.0 L 664.0 339.0 L 663.0 340.0 L 663.0 345.0 L 662.0 346.0 L 662.0 351.0 L 661.0 352.0 L 659.0 369.0 L 658.0 370.0 L 658.0 374.0 L 657.0 375.0 L 657.0 379.0 L 656.0 380.0 L 656.0 384.0 L 655.0 385.0 L 655.0 389.0 L 654.0 390.0 L 654.0 395.0 L 656.0 399.0 L 659.0 401.0 L 666.0 401.0 L 669.0 399.0 L 671.0 396.0 L 671.0 393.0 L 672.0 392.0 L 672.0 387.0 L 673.0 386.0 L 673.0 382.0 L 674.0 381.0 L 674.0 376.0 L 675.0 375.0 L 677.0 358.0 L 678.0 357.0 L 679.0 347.0 L 680.0 346.0 L 680.0 337.0 L 679.0 335.0 Z
    M 217.0 218.0 L 205.0 229.0 L 199.0 237.0 L 192.0 251.0 L 192.0 253.0 L 190.0 257.0 L 190.0 260.0 L 189.0 261.0 L 189.0 265.0 L 188.0 266.0 L 188.0 328.0 L 187.0 329.0 L 187.0 337.0 L 188.0 338.0 L 188.0 366.0 L 187.0 367.0 L 187.0 373.0 L 188.0 374.0 L 188.0 1036.0 L 189.0 1037.0 L 189.0 1043.0 L 190.0 1044.0 L 190.0 1047.0 L 191.0 1048.0 L 191.0 1051.0 L 192.0 1052.0 L 193.0 1057.0 L 202.0 1073.0 L 215.0 1087.0 L 227.0 1095.0 L 235.0 1099.0 L 237.0 1099.0 L 244.0 1102.0 L 247.0 1102.0 L 248.0 1103.0 L 255.0 1103.0 L 256.0 1104.0 L 629.0 1104.0 L 630.0 1103.0 L 683.0 1103.0 L 684.0 1104.0 L 689.0 1105.0 L 692.0 1107.0 L 703.0 1110.0 L 706.0 1112.0 L 714.0 1114.0 L 717.0 1116.0 L 725.0 1118.0 L 728.0 1120.0 L 736.0 1122.0 L 739.0 1124.0 L 747.0 1126.0 L 750.0 1128.0 L 755.0 1129.0 L 766.0 1134.0 L 777.0 1137.0 L 780.0 1139.0 L 785.0 1140.0 L 788.0 1142.0 L 793.0 1143.0 L 804.0 1148.0 L 806.0 1148.0 L 813.0 1151.0 L 820.0 1152.0 L 821.0 1153.0 L 826.0 1153.0 L 827.0 1154.0 L 845.0 1154.0 L 846.0 1153.0 L 851.0 1153.0 L 852.0 1152.0 L 855.0 1152.0 L 856.0 1151.0 L 861.0 1150.0 L 864.0 1148.0 L 866.0 1148.0 L 876.0 1142.0 L 890.0 1129.0 L 895.0 1122.0 L 900.0 1111.0 L 901.0 1106.0 L 905.0 1098.0 L 909.0 1085.0 L 911.0 1082.0 L 914.0 1072.0 L 916.0 1069.0 L 919.0 1058.0 L 923.0 1050.0 L 924.0 1045.0 L 926.0 1042.0 L 927.0 1037.0 L 932.0 1026.0 L 934.0 1018.0 L 939.0 1007.0 L 941.0 999.0 L 944.0 994.0 L 944.0 992.0 L 945.0 991.0 L 946.0 986.0 L 948.0 983.0 L 950.0 975.0 L 952.0 972.0 L 956.0 959.0 L 960.0 951.0 L 960.0 949.0 L 961.0 948.0 L 962.0 943.0 L 964.0 940.0 L 967.0 929.0 L 969.0 926.0 L 970.0 921.0 L 974.0 913.0 L 974.0 911.0 L 977.0 905.0 L 978.0 900.0 L 980.0 897.0 L 982.0 889.0 L 984.0 886.0 L 985.0 881.0 L 987.0 878.0 L 988.0 873.0 L 993.0 862.0 L 993.0 860.0 L 994.0 859.0 L 995.0 854.0 L 997.0 851.0 L 999.0 843.0 L 1003.0 835.0 L 1004.0 830.0 L 1006.0 827.0 L 1007.0 822.0 L 1011.0 814.0 L 1013.0 806.0 L 1015.0 803.0 L 1019.0 790.0 L 1021.0 787.0 L 1022.0 782.0 L 1027.0 771.0 L 1029.0 763.0 L 1031.0 760.0 L 1032.0 755.0 L 1034.0 752.0 L 1035.0 747.0 L 1040.0 736.0 L 1042.0 728.0 L 1044.0 725.0 L 1046.0 717.0 L 1048.0 714.0 L 1049.0 709.0 L 1051.0 706.0 L 1052.0 701.0 L 1054.0 698.0 L 1055.0 693.0 L 1060.0 682.0 L 1062.0 674.0 L 1064.0 671.0 L 1065.0 666.0 L 1067.0 663.0 L 1068.0 658.0 L 1070.0 655.0 L 1071.0 650.0 L 1076.0 639.0 L 1079.0 628.0 L 1083.0 620.0 L 1085.0 612.0 L 1089.0 604.0 L 1091.0 596.0 L 1093.0 593.0 L 1097.0 580.0 L 1099.0 577.0 L 1102.0 567.0 L 1106.0 559.0 L 1111.0 543.0 L 1113.0 540.0 L 1114.0 535.0 L 1118.0 527.0 L 1118.0 525.0 L 1121.0 519.0 L 1122.0 514.0 L 1124.0 511.0 L 1126.0 503.0 L 1130.0 495.0 L 1132.0 487.0 L 1136.0 479.0 L 1136.0 477.0 L 1139.0 471.0 L 1140.0 466.0 L 1142.0 463.0 L 1144.0 455.0 L 1149.0 444.0 L 1149.0 442.0 L 1153.0 432.0 L 1153.0 428.0 L 1154.0 427.0 L 1155.0 410.0 L 1154.0 409.0 L 1153.0 397.0 L 1152.0 396.0 L 1150.0 388.0 L 1148.0 385.0 L 1148.0 383.0 L 1146.0 381.0 L 1141.0 372.0 L 1130.0 360.0 L 1119.0 352.0 L 1113.0 349.0 L 1111.0 349.0 L 1104.0 346.0 L 1101.0 346.0 L 1091.0 342.0 L 1088.0 342.0 L 1084.0 340.0 L 1081.0 340.0 L 1077.0 338.0 L 1074.0 338.0 L 1067.0 335.0 L 1064.0 335.0 L 1057.0 332.0 L 1054.0 332.0 L 1047.0 329.0 L 1044.0 329.0 L 1037.0 326.0 L 1034.0 326.0 L 1030.0 324.0 L 1020.0 322.0 L 1019.0 321.0 L 1020.0 312.0 L 1021.0 311.0 L 1021.0 308.0 L 1023.0 303.0 L 1023.0 299.0 L 1024.0 298.0 L 1025.0 290.0 L 1026.0 289.0 L 1026.0 283.0 L 1027.0 282.0 L 1027.0 267.0 L 1026.0 266.0 L 1026.0 260.0 L 1025.0 259.0 L 1024.0 251.0 L 1022.0 248.0 L 1021.0 243.0 L 1016.0 233.0 L 1009.0 223.0 L 997.0 211.0 L 990.0 206.0 L 979.0 200.0 L 977.0 200.0 L 974.0 198.0 L 967.0 197.0 L 966.0 196.0 L 962.0 196.0 L 961.0 195.0 L 957.0 195.0 L 956.0 194.0 L 942.0 192.0 L 937.0 190.0 L 933.0 190.0 L 932.0 189.0 L 928.0 189.0 L 927.0 188.0 L 913.0 186.0 L 908.0 184.0 L 904.0 184.0 L 903.0 183.0 L 899.0 183.0 L 898.0 182.0 L 894.0 182.0 L 893.0 181.0 L 879.0 179.0 L 874.0 177.0 L 864.0 176.0 L 859.0 174.0 L 855.0 174.0 L 854.0 173.0 L 840.0 171.0 L 839.0 170.0 L 831.0 169.0 L 830.0 168.0 L 826.0 168.0 L 825.0 167.0 L 821.0 167.0 L 816.0 165.0 L 812.0 165.0 L 811.0 164.0 L 807.0 164.0 L 806.0 163.0 L 802.0 163.0 L 801.0 162.0 L 797.0 162.0 L 796.0 161.0 L 792.0 161.0 L 791.0 160.0 L 777.0 158.0 L 772.0 156.0 L 768.0 156.0 L 767.0 155.0 L 763.0 155.0 L 762.0 154.0 L 758.0 154.0 L 757.0 153.0 L 753.0 153.0 L 752.0 152.0 L 738.0 150.0 L 733.0 148.0 L 729.0 148.0 L 728.0 147.0 L 724.0 147.0 L 723.0 146.0 L 719.0 146.0 L 718.0 145.0 L 714.0 145.0 L 713.0 144.0 L 708.0 144.0 L 703.0 142.0 L 699.0 142.0 L 698.0 141.0 L 694.0 141.0 L 693.0 140.0 L 689.0 140.0 L 688.0 139.0 L 684.0 139.0 L 683.0 138.0 L 679.0 138.0 L 678.0 137.0 L 674.0 137.0 L 673.0 136.0 L 659.0 134.0 L 654.0 132.0 L 649.0 132.0 L 648.0 131.0 L 644.0 131.0 L 643.0 130.0 L 639.0 130.0 L 638.0 129.0 L 624.0 127.0 L 619.0 125.0 L 615.0 125.0 L 614.0 124.0 L 610.0 124.0 L 609.0 123.0 L 605.0 123.0 L 604.0 122.0 L 600.0 122.0 L 599.0 121.0 L 595.0 121.0 L 594.0 120.0 L 590.0 120.0 L 589.0 119.0 L 585.0 119.0 L 584.0 118.0 L 580.0 118.0 L 579.0 117.0 L 575.0 117.0 L 574.0 116.0 L 570.0 116.0 L 569.0 115.0 L 565.0 115.0 L 564.0 114.0 L 560.0 114.0 L 559.0 113.0 L 555.0 113.0 L 554.0 112.0 L 550.0 112.0 L 549.0 111.0 L 545.0 111.0 L 544.0 110.0 L 540.0 110.0 L 539.0 109.0 L 535.0 109.0 L 534.0 108.0 L 530.0 108.0 L 529.0 107.0 L 525.0 107.0 L 524.0 106.0 L 520.0 106.0 L 519.0 105.0 L 515.0 105.0 L 510.0 103.0 L 505.0 103.0 L 504.0 102.0 L 500.0 102.0 L 499.0 101.0 L 495.0 101.0 L 494.0 100.0 L 490.0 100.0 L 489.0 99.0 L 485.0 99.0 L 484.0 98.0 L 480.0 98.0 L 479.0 97.0 L 468.0 97.0 L 467.0 96.0 L 464.0 96.0 L 463.0 97.0 L 453.0 97.0 L 452.0 98.0 L 448.0 98.0 L 447.0 99.0 L 440.0 100.0 L 424.0 107.0 L 412.0 115.0 L 399.0 128.0 L 388.0 145.0 L 388.0 147.0 L 384.0 155.0 L 384.0 158.0 L 382.0 163.0 L 382.0 167.0 L 381.0 168.0 L 381.0 171.0 L 379.0 176.0 L 379.0 180.0 L 378.0 181.0 L 378.0 185.0 L 376.0 190.0 L 375.0 199.0 L 372.0 203.0 L 252.0 203.0 L 251.0 204.0 L 243.0 205.0 L 242.0 206.0 L 237.0 207.0 L 234.0 209.0 L 232.0 209.0 Z
    M 213.0 952.0 L 214.0 951.0 L 216.0 952.0 L 216.0 955.0 L 217.0 956.0 L 219.0 964.0 L 223.0 972.0 L 234.0 987.0 L 244.0 996.0 L 253.0 1002.0 L 266.0 1008.0 L 269.0 1008.0 L 277.0 1011.0 L 291.0 1013.0 L 296.0 1015.0 L 300.0 1015.0 L 305.0 1017.0 L 309.0 1017.0 L 314.0 1019.0 L 318.0 1019.0 L 323.0 1021.0 L 332.0 1022.0 L 337.0 1024.0 L 341.0 1024.0 L 346.0 1026.0 L 350.0 1026.0 L 351.0 1027.0 L 354.0 1027.0 L 359.0 1029.0 L 368.0 1030.0 L 369.0 1031.0 L 372.0 1031.0 L 377.0 1033.0 L 381.0 1033.0 L 386.0 1035.0 L 390.0 1035.0 L 391.0 1036.0 L 399.0 1037.0 L 404.0 1039.0 L 408.0 1039.0 L 413.0 1041.0 L 417.0 1041.0 L 422.0 1043.0 L 426.0 1043.0 L 431.0 1045.0 L 435.0 1045.0 L 436.0 1046.0 L 440.0 1046.0 L 441.0 1047.0 L 449.0 1048.0 L 454.0 1050.0 L 458.0 1050.0 L 463.0 1052.0 L 467.0 1052.0 L 472.0 1054.0 L 476.0 1054.0 L 477.0 1055.0 L 481.0 1055.0 L 482.0 1056.0 L 490.0 1057.0 L 495.0 1059.0 L 499.0 1059.0 L 500.0 1060.0 L 504.0 1060.0 L 509.0 1062.0 L 513.0 1062.0 L 514.0 1063.0 L 517.0 1063.0 L 522.0 1065.0 L 526.0 1065.0 L 527.0 1066.0 L 530.0 1066.0 L 535.0 1068.0 L 539.0 1068.0 L 544.0 1070.0 L 548.0 1070.0 L 553.0 1072.0 L 557.0 1072.0 L 558.0 1073.0 L 562.0 1073.0 L 567.0 1075.0 L 571.0 1075.0 L 572.0 1076.0 L 575.0 1076.0 L 576.0 1078.0 L 575.0 1079.0 L 254.0 1079.0 L 253.0 1078.0 L 247.0 1077.0 L 244.0 1075.0 L 242.0 1075.0 L 240.0 1073.0 L 234.0 1070.0 L 223.0 1059.0 L 219.0 1053.0 L 215.0 1043.0 L 214.0 1033.0 L 213.0 1032.0 Z
    M 1103.0 372.0 L 1114.0 379.0 L 1122.0 388.0 L 1123.0 391.0 L 1126.0 395.0 L 1126.0 397.0 L 1129.0 404.0 L 1129.0 408.0 L 1130.0 409.0 L 1130.0 419.0 L 1129.0 420.0 L 1129.0 425.0 L 1128.0 426.0 L 1124.0 440.0 L 1120.0 448.0 L 1119.0 453.0 L 1117.0 456.0 L 1116.0 461.0 L 1112.0 469.0 L 1107.0 485.0 L 1105.0 488.0 L 1100.0 504.0 L 1096.0 512.0 L 1091.0 528.0 L 1087.0 536.0 L 1086.0 541.0 L 1084.0 544.0 L 1083.0 549.0 L 1081.0 552.0 L 1080.0 557.0 L 1078.0 560.0 L 1077.0 565.0 L 1075.0 568.0 L 1074.0 573.0 L 1069.0 584.0 L 1068.0 589.0 L 1066.0 592.0 L 1065.0 597.0 L 1063.0 600.0 L 1061.0 608.0 L 1059.0 611.0 L 1059.0 613.0 L 1056.0 619.0 L 1055.0 624.0 L 1053.0 627.0 L 1052.0 632.0 L 1050.0 635.0 L 1050.0 637.0 L 1049.0 638.0 L 1048.0 643.0 L 1046.0 646.0 L 1043.0 657.0 L 1041.0 660.0 L 1040.0 665.0 L 1038.0 668.0 L 1037.0 673.0 L 1032.0 684.0 L 1030.0 692.0 L 1028.0 695.0 L 1027.0 700.0 L 1025.0 703.0 L 1024.0 708.0 L 1022.0 711.0 L 1021.0 716.0 L 1016.0 727.0 L 1014.0 735.0 L 1012.0 738.0 L 1010.0 746.0 L 1008.0 749.0 L 1007.0 754.0 L 1005.0 757.0 L 1004.0 762.0 L 999.0 773.0 L 997.0 781.0 L 995.0 784.0 L 991.0 797.0 L 987.0 805.0 L 986.0 810.0 L 982.0 818.0 L 980.0 826.0 L 976.0 834.0 L 974.0 842.0 L 970.0 850.0 L 965.0 866.0 L 963.0 869.0 L 962.0 874.0 L 960.0 877.0 L 959.0 882.0 L 957.0 885.0 L 956.0 890.0 L 951.0 901.0 L 947.0 915.0 L 945.0 918.0 L 945.0 920.0 L 943.0 923.0 L 939.0 936.0 L 937.0 939.0 L 936.0 944.0 L 934.0 947.0 L 932.0 955.0 L 930.0 958.0 L 929.0 963.0 L 927.0 966.0 L 926.0 971.0 L 924.0 974.0 L 923.0 979.0 L 918.0 990.0 L 918.0 992.0 L 917.0 993.0 L 916.0 998.0 L 914.0 1001.0 L 913.0 1006.0 L 911.0 1009.0 L 909.0 1017.0 L 905.0 1025.0 L 903.0 1033.0 L 901.0 1036.0 L 897.0 1049.0 L 895.0 1052.0 L 895.0 1054.0 L 893.0 1057.0 L 889.0 1070.0 L 887.0 1073.0 L 885.0 1081.0 L 883.0 1084.0 L 880.0 1094.0 L 878.0 1097.0 L 877.0 1102.0 L 871.0 1113.0 L 864.0 1120.0 L 860.0 1123.0 L 849.0 1128.0 L 840.0 1129.0 L 839.0 1130.0 L 826.0 1129.0 L 825.0 1128.0 L 811.0 1124.0 L 808.0 1122.0 L 803.0 1121.0 L 802.0 1120.0 L 802.0 1118.0 L 803.0 1117.0 L 808.0 1116.0 L 820.0 1110.0 L 827.0 1105.0 L 833.0 1099.0 L 834.0 1099.0 L 834.0 1098.0 L 843.0 1088.0 L 845.0 1083.0 L 849.0 1077.0 L 849.0 1075.0 L 852.0 1068.0 L 853.0 1060.0 L 854.0 1059.0 L 854.0 1055.0 L 856.0 1050.0 L 856.0 1046.0 L 858.0 1041.0 L 858.0 1037.0 L 860.0 1032.0 L 860.0 1028.0 L 861.0 1027.0 L 861.0 1024.0 L 863.0 1019.0 L 863.0 1015.0 L 865.0 1010.0 L 865.0 1006.0 L 866.0 1005.0 L 866.0 1001.0 L 868.0 996.0 L 870.0 982.0 L 872.0 977.0 L 872.0 973.0 L 874.0 968.0 L 874.0 964.0 L 876.0 959.0 L 876.0 955.0 L 878.0 950.0 L 878.0 946.0 L 879.0 945.0 L 879.0 942.0 L 881.0 937.0 L 881.0 933.0 L 882.0 932.0 L 882.0 928.0 L 884.0 923.0 L 885.0 914.0 L 887.0 909.0 L 887.0 905.0 L 888.0 904.0 L 889.0 896.0 L 890.0 895.0 L 890.0 892.0 L 892.0 887.0 L 892.0 883.0 L 894.0 878.0 L 894.0 874.0 L 895.0 873.0 L 895.0 870.0 L 897.0 865.0 L 897.0 861.0 L 898.0 860.0 L 898.0 856.0 L 900.0 851.0 L 900.0 847.0 L 901.0 846.0 L 901.0 842.0 L 903.0 837.0 L 903.0 833.0 L 904.0 832.0 L 904.0 829.0 L 906.0 824.0 L 906.0 820.0 L 908.0 815.0 L 908.0 811.0 L 909.0 810.0 L 909.0 807.0 L 911.0 802.0 L 911.0 798.0 L 913.0 793.0 L 913.0 789.0 L 915.0 784.0 L 915.0 780.0 L 916.0 779.0 L 916.0 775.0 L 918.0 770.0 L 919.0 761.0 L 920.0 760.0 L 920.0 757.0 L 922.0 752.0 L 922.0 748.0 L 923.0 747.0 L 923.0 744.0 L 925.0 739.0 L 925.0 735.0 L 926.0 734.0 L 926.0 731.0 L 927.0 730.0 L 927.0 727.0 L 929.0 722.0 L 929.0 718.0 L 931.0 713.0 L 931.0 709.0 L 932.0 708.0 L 932.0 704.0 L 934.0 699.0 L 934.0 695.0 L 935.0 694.0 L 935.0 690.0 L 937.0 685.0 L 937.0 681.0 L 938.0 680.0 L 938.0 677.0 L 939.0 676.0 L 939.0 673.0 L 941.0 668.0 L 941.0 664.0 L 942.0 663.0 L 942.0 660.0 L 944.0 655.0 L 944.0 651.0 L 946.0 646.0 L 946.0 642.0 L 948.0 637.0 L 948.0 633.0 L 949.0 632.0 L 949.0 628.0 L 951.0 623.0 L 951.0 619.0 L 952.0 618.0 L 952.0 615.0 L 954.0 610.0 L 954.0 606.0 L 956.0 601.0 L 956.0 597.0 L 957.0 596.0 L 957.0 593.0 L 958.0 592.0 L 958.0 589.0 L 959.0 588.0 L 959.0 585.0 L 961.0 580.0 L 961.0 576.0 L 962.0 575.0 L 962.0 571.0 L 964.0 566.0 L 965.0 557.0 L 966.0 556.0 L 966.0 553.0 L 968.0 548.0 L 968.0 544.0 L 970.0 539.0 L 970.0 535.0 L 971.0 534.0 L 971.0 531.0 L 973.0 526.0 L 973.0 522.0 L 974.0 521.0 L 974.0 518.0 L 975.0 517.0 L 975.0 514.0 L 977.0 509.0 L 978.0 500.0 L 979.0 499.0 L 980.0 491.0 L 982.0 486.0 L 982.0 482.0 L 984.0 477.0 L 984.0 473.0 L 985.0 472.0 L 985.0 469.0 L 987.0 464.0 L 987.0 460.0 L 989.0 455.0 L 989.0 451.0 L 990.0 450.0 L 990.0 447.0 L 991.0 446.0 L 991.0 443.0 L 993.0 438.0 L 993.0 434.0 L 995.0 429.0 L 995.0 425.0 L 996.0 424.0 L 996.0 420.0 L 998.0 415.0 L 998.0 411.0 L 1000.0 406.0 L 1000.0 402.0 L 1001.0 401.0 L 1001.0 398.0 L 1003.0 393.0 L 1003.0 389.0 L 1004.0 388.0 L 1004.0 385.0 L 1006.0 380.0 L 1006.0 376.0 L 1008.0 371.0 L 1008.0 367.0 L 1010.0 362.0 L 1010.0 358.0 L 1012.0 353.0 L 1012.0 349.0 L 1014.0 346.0 L 1016.0 346.0 L 1017.0 347.0 L 1023.0 348.0 L 1030.0 351.0 L 1033.0 351.0 L 1040.0 354.0 L 1043.0 354.0 L 1050.0 357.0 L 1053.0 357.0 L 1063.0 361.0 L 1066.0 361.0 L 1070.0 363.0 L 1073.0 363.0 L 1077.0 365.0 L 1080.0 365.0 L 1087.0 368.0 L 1090.0 368.0 L 1094.0 370.0 L 1097.0 370.0 L 1098.0 371.0 Z
    M 367.0 227.0 L 368.0 228.0 L 368.0 230.0 L 366.0 235.0 L 365.0 244.0 L 364.0 245.0 L 363.0 253.0 L 361.0 258.0 L 361.0 262.0 L 360.0 263.0 L 360.0 266.0 L 358.0 271.0 L 358.0 275.0 L 357.0 276.0 L 356.0 284.0 L 354.0 289.0 L 353.0 298.0 L 352.0 299.0 L 352.0 302.0 L 350.0 307.0 L 349.0 316.0 L 347.0 321.0 L 347.0 325.0 L 345.0 330.0 L 345.0 334.0 L 343.0 339.0 L 343.0 343.0 L 342.0 344.0 L 342.0 347.0 L 340.0 352.0 L 340.0 356.0 L 338.0 361.0 L 338.0 365.0 L 337.0 366.0 L 337.0 370.0 L 335.0 375.0 L 334.0 384.0 L 333.0 385.0 L 333.0 388.0 L 331.0 393.0 L 330.0 402.0 L 329.0 403.0 L 329.0 406.0 L 328.0 407.0 L 328.0 410.0 L 326.0 415.0 L 326.0 419.0 L 325.0 420.0 L 324.0 428.0 L 322.0 433.0 L 321.0 442.0 L 320.0 443.0 L 320.0 446.0 L 318.0 451.0 L 318.0 455.0 L 316.0 460.0 L 315.0 469.0 L 314.0 470.0 L 314.0 473.0 L 312.0 478.0 L 312.0 482.0 L 311.0 483.0 L 311.0 486.0 L 309.0 491.0 L 309.0 495.0 L 307.0 500.0 L 305.0 514.0 L 303.0 519.0 L 303.0 523.0 L 301.0 528.0 L 301.0 532.0 L 299.0 537.0 L 299.0 541.0 L 297.0 546.0 L 297.0 550.0 L 296.0 551.0 L 296.0 554.0 L 294.0 559.0 L 294.0 563.0 L 293.0 564.0 L 293.0 568.0 L 292.0 569.0 L 292.0 572.0 L 290.0 577.0 L 290.0 581.0 L 288.0 586.0 L 288.0 590.0 L 287.0 591.0 L 287.0 594.0 L 285.0 599.0 L 284.0 608.0 L 283.0 609.0 L 283.0 612.0 L 281.0 617.0 L 281.0 621.0 L 280.0 622.0 L 280.0 625.0 L 278.0 630.0 L 278.0 634.0 L 276.0 639.0 L 276.0 643.0 L 274.0 648.0 L 273.0 657.0 L 271.0 662.0 L 270.0 671.0 L 268.0 676.0 L 268.0 680.0 L 266.0 685.0 L 266.0 689.0 L 265.0 690.0 L 264.0 698.0 L 262.0 703.0 L 262.0 707.0 L 260.0 712.0 L 260.0 716.0 L 258.0 721.0 L 258.0 725.0 L 257.0 726.0 L 257.0 730.0 L 256.0 731.0 L 255.0 739.0 L 253.0 744.0 L 253.0 748.0 L 252.0 749.0 L 252.0 753.0 L 250.0 758.0 L 250.0 762.0 L 249.0 763.0 L 249.0 766.0 L 247.0 771.0 L 246.0 780.0 L 245.0 781.0 L 245.0 784.0 L 243.0 789.0 L 243.0 793.0 L 242.0 794.0 L 241.0 803.0 L 240.0 804.0 L 239.0 812.0 L 237.0 817.0 L 236.0 826.0 L 235.0 827.0 L 234.0 835.0 L 233.0 836.0 L 233.0 839.0 L 231.0 844.0 L 231.0 848.0 L 229.0 853.0 L 229.0 857.0 L 228.0 858.0 L 228.0 861.0 L 226.0 866.0 L 225.0 875.0 L 224.0 876.0 L 223.0 884.0 L 221.0 889.0 L 221.0 893.0 L 220.0 894.0 L 220.0 897.0 L 218.0 902.0 L 218.0 906.0 L 216.0 911.0 L 216.0 915.0 L 214.0 916.0 L 213.0 915.0 L 213.0 268.0 L 214.0 267.0 L 214.0 264.0 L 215.0 263.0 L 216.0 258.0 L 222.0 248.0 L 233.0 237.0 L 243.0 231.0 L 245.0 231.0 L 252.0 228.0 L 257.0 228.0 L 258.0 227.0 Z
    M 446.0 124.0 L 452.0 123.0 L 453.0 122.0 L 457.0 122.0 L 458.0 121.0 L 474.0 121.0 L 475.0 122.0 L 479.0 122.0 L 480.0 123.0 L 484.0 123.0 L 485.0 124.0 L 499.0 126.0 L 504.0 128.0 L 508.0 128.0 L 509.0 129.0 L 513.0 129.0 L 514.0 130.0 L 518.0 130.0 L 519.0 131.0 L 523.0 131.0 L 524.0 132.0 L 538.0 134.0 L 543.0 136.0 L 547.0 136.0 L 548.0 137.0 L 552.0 137.0 L 553.0 138.0 L 557.0 138.0 L 558.0 139.0 L 562.0 139.0 L 563.0 140.0 L 567.0 140.0 L 568.0 141.0 L 572.0 141.0 L 573.0 142.0 L 577.0 142.0 L 578.0 143.0 L 582.0 143.0 L 583.0 144.0 L 587.0 144.0 L 588.0 145.0 L 592.0 145.0 L 593.0 146.0 L 597.0 146.0 L 598.0 147.0 L 602.0 147.0 L 603.0 148.0 L 607.0 148.0 L 608.0 149.0 L 612.0 149.0 L 613.0 150.0 L 617.0 150.0 L 618.0 151.0 L 622.0 151.0 L 623.0 152.0 L 627.0 152.0 L 628.0 153.0 L 632.0 153.0 L 633.0 154.0 L 637.0 154.0 L 638.0 155.0 L 642.0 155.0 L 643.0 156.0 L 657.0 158.0 L 662.0 160.0 L 667.0 160.0 L 668.0 161.0 L 672.0 161.0 L 677.0 163.0 L 681.0 163.0 L 682.0 164.0 L 686.0 164.0 L 687.0 165.0 L 691.0 165.0 L 692.0 166.0 L 696.0 166.0 L 697.0 167.0 L 701.0 167.0 L 702.0 168.0 L 706.0 168.0 L 707.0 169.0 L 711.0 169.0 L 712.0 170.0 L 716.0 170.0 L 717.0 171.0 L 721.0 171.0 L 722.0 172.0 L 726.0 172.0 L 727.0 173.0 L 731.0 173.0 L 732.0 174.0 L 736.0 174.0 L 737.0 175.0 L 741.0 175.0 L 742.0 176.0 L 756.0 178.0 L 761.0 180.0 L 765.0 180.0 L 766.0 181.0 L 770.0 181.0 L 771.0 182.0 L 775.0 182.0 L 776.0 183.0 L 780.0 183.0 L 781.0 184.0 L 785.0 184.0 L 786.0 185.0 L 790.0 185.0 L 791.0 186.0 L 795.0 186.0 L 796.0 187.0 L 800.0 187.0 L 801.0 188.0 L 805.0 188.0 L 806.0 189.0 L 820.0 191.0 L 825.0 193.0 L 829.0 193.0 L 830.0 194.0 L 839.0 195.0 L 844.0 197.0 L 848.0 197.0 L 849.0 198.0 L 863.0 200.0 L 868.0 202.0 L 872.0 202.0 L 873.0 203.0 L 877.0 203.0 L 878.0 204.0 L 882.0 204.0 L 883.0 205.0 L 887.0 205.0 L 888.0 206.0 L 892.0 206.0 L 893.0 207.0 L 897.0 207.0 L 898.0 208.0 L 902.0 208.0 L 903.0 209.0 L 907.0 209.0 L 908.0 210.0 L 912.0 210.0 L 913.0 211.0 L 917.0 211.0 L 918.0 212.0 L 922.0 212.0 L 923.0 213.0 L 927.0 213.0 L 928.0 214.0 L 932.0 214.0 L 933.0 215.0 L 947.0 217.0 L 948.0 218.0 L 956.0 219.0 L 957.0 220.0 L 962.0 220.0 L 963.0 221.0 L 968.0 222.0 L 979.0 228.0 L 991.0 240.0 L 997.0 250.0 L 997.0 252.0 L 999.0 255.0 L 1000.0 261.0 L 1001.0 262.0 L 1001.0 268.0 L 1002.0 269.0 L 1002.0 280.0 L 1001.0 281.0 L 1000.0 291.0 L 998.0 296.0 L 998.0 300.0 L 996.0 305.0 L 996.0 309.0 L 994.0 314.0 L 994.0 318.0 L 992.0 323.0 L 992.0 327.0 L 991.0 328.0 L 991.0 332.0 L 990.0 333.0 L 990.0 336.0 L 988.0 341.0 L 988.0 345.0 L 987.0 346.0 L 987.0 349.0 L 985.0 354.0 L 985.0 358.0 L 984.0 359.0 L 984.0 362.0 L 982.0 367.0 L 982.0 371.0 L 981.0 372.0 L 981.0 376.0 L 980.0 377.0 L 979.0 385.0 L 977.0 390.0 L 977.0 394.0 L 976.0 395.0 L 976.0 399.0 L 974.0 404.0 L 974.0 408.0 L 973.0 409.0 L 973.0 412.0 L 971.0 417.0 L 971.0 421.0 L 970.0 422.0 L 970.0 425.0 L 969.0 426.0 L 969.0 429.0 L 967.0 434.0 L 967.0 438.0 L 965.0 443.0 L 965.0 447.0 L 964.0 448.0 L 964.0 452.0 L 963.0 453.0 L 962.0 461.0 L 960.0 466.0 L 960.0 470.0 L 959.0 471.0 L 959.0 474.0 L 957.0 479.0 L 957.0 483.0 L 956.0 484.0 L 956.0 487.0 L 954.0 492.0 L 954.0 496.0 L 953.0 497.0 L 952.0 505.0 L 950.0 510.0 L 950.0 514.0 L 949.0 515.0 L 949.0 519.0 L 948.0 520.0 L 947.0 528.0 L 945.0 533.0 L 945.0 537.0 L 943.0 542.0 L 943.0 546.0 L 941.0 551.0 L 941.0 555.0 L 940.0 556.0 L 940.0 559.0 L 938.0 564.0 L 938.0 568.0 L 937.0 569.0 L 937.0 572.0 L 935.0 577.0 L 935.0 581.0 L 933.0 586.0 L 932.0 595.0 L 931.0 596.0 L 931.0 599.0 L 929.0 604.0 L 929.0 608.0 L 927.0 613.0 L 927.0 617.0 L 926.0 618.0 L 926.0 621.0 L 924.0 626.0 L 924.0 630.0 L 923.0 631.0 L 923.0 634.0 L 922.0 635.0 L 922.0 638.0 L 920.0 643.0 L 920.0 647.0 L 919.0 648.0 L 918.0 656.0 L 917.0 657.0 L 917.0 661.0 L 916.0 662.0 L 916.0 665.0 L 914.0 670.0 L 914.0 674.0 L 912.0 679.0 L 911.0 688.0 L 910.0 689.0 L 910.0 692.0 L 909.0 693.0 L 909.0 696.0 L 907.0 701.0 L 907.0 705.0 L 905.0 710.0 L 905.0 714.0 L 904.0 715.0 L 904.0 718.0 L 902.0 723.0 L 900.0 737.0 L 899.0 738.0 L 899.0 741.0 L 897.0 746.0 L 897.0 750.0 L 895.0 755.0 L 895.0 759.0 L 893.0 764.0 L 893.0 768.0 L 891.0 773.0 L 891.0 777.0 L 890.0 778.0 L 890.0 781.0 L 888.0 786.0 L 888.0 790.0 L 887.0 791.0 L 887.0 795.0 L 885.0 800.0 L 885.0 804.0 L 884.0 805.0 L 884.0 809.0 L 882.0 814.0 L 882.0 818.0 L 880.0 823.0 L 880.0 827.0 L 878.0 832.0 L 877.0 841.0 L 876.0 842.0 L 876.0 845.0 L 875.0 846.0 L 875.0 849.0 L 873.0 854.0 L 873.0 858.0 L 872.0 859.0 L 871.0 867.0 L 869.0 872.0 L 869.0 876.0 L 867.0 881.0 L 867.0 885.0 L 865.0 890.0 L 864.0 899.0 L 862.0 904.0 L 862.0 908.0 L 861.0 909.0 L 861.0 912.0 L 859.0 917.0 L 859.0 921.0 L 857.0 926.0 L 857.0 930.0 L 855.0 935.0 L 855.0 939.0 L 853.0 944.0 L 853.0 948.0 L 852.0 949.0 L 850.0 963.0 L 848.0 968.0 L 847.0 977.0 L 846.0 978.0 L 845.0 986.0 L 843.0 991.0 L 843.0 995.0 L 841.0 1000.0 L 841.0 1004.0 L 839.0 1009.0 L 839.0 1013.0 L 838.0 1014.0 L 838.0 1018.0 L 836.0 1023.0 L 835.0 1032.0 L 833.0 1037.0 L 832.0 1046.0 L 830.0 1051.0 L 829.0 1060.0 L 828.0 1061.0 L 827.0 1066.0 L 821.0 1076.0 L 810.0 1087.0 L 804.0 1090.0 L 802.0 1092.0 L 800.0 1092.0 L 797.0 1094.0 L 790.0 1095.0 L 789.0 1096.0 L 772.0 1096.0 L 771.0 1095.0 L 767.0 1095.0 L 762.0 1093.0 L 758.0 1093.0 L 757.0 1092.0 L 753.0 1092.0 L 748.0 1090.0 L 744.0 1090.0 L 743.0 1089.0 L 740.0 1089.0 L 735.0 1087.0 L 731.0 1087.0 L 726.0 1085.0 L 722.0 1085.0 L 721.0 1084.0 L 718.0 1084.0 L 713.0 1082.0 L 709.0 1082.0 L 704.0 1080.0 L 700.0 1080.0 L 695.0 1078.0 L 691.0 1078.0 L 686.0 1076.0 L 682.0 1076.0 L 677.0 1074.0 L 673.0 1074.0 L 672.0 1073.0 L 669.0 1073.0 L 664.0 1071.0 L 660.0 1071.0 L 659.0 1070.0 L 656.0 1070.0 L 651.0 1068.0 L 647.0 1068.0 L 646.0 1067.0 L 643.0 1067.0 L 638.0 1065.0 L 634.0 1065.0 L 633.0 1064.0 L 630.0 1064.0 L 625.0 1062.0 L 621.0 1062.0 L 616.0 1060.0 L 612.0 1060.0 L 611.0 1059.0 L 608.0 1059.0 L 603.0 1057.0 L 599.0 1057.0 L 598.0 1056.0 L 595.0 1056.0 L 590.0 1054.0 L 586.0 1054.0 L 585.0 1053.0 L 577.0 1052.0 L 572.0 1050.0 L 568.0 1050.0 L 563.0 1048.0 L 559.0 1048.0 L 554.0 1046.0 L 545.0 1045.0 L 544.0 1044.0 L 536.0 1043.0 L 535.0 1042.0 L 532.0 1042.0 L 527.0 1040.0 L 518.0 1039.0 L 517.0 1038.0 L 514.0 1038.0 L 509.0 1036.0 L 505.0 1036.0 L 500.0 1034.0 L 496.0 1034.0 L 491.0 1032.0 L 487.0 1032.0 L 482.0 1030.0 L 478.0 1030.0 L 473.0 1028.0 L 469.0 1028.0 L 464.0 1026.0 L 460.0 1026.0 L 455.0 1024.0 L 451.0 1024.0 L 450.0 1023.0 L 442.0 1022.0 L 437.0 1020.0 L 433.0 1020.0 L 428.0 1018.0 L 424.0 1018.0 L 419.0 1016.0 L 410.0 1015.0 L 405.0 1013.0 L 401.0 1013.0 L 396.0 1011.0 L 392.0 1011.0 L 387.0 1009.0 L 383.0 1009.0 L 378.0 1007.0 L 374.0 1007.0 L 373.0 1006.0 L 370.0 1006.0 L 365.0 1004.0 L 361.0 1004.0 L 356.0 1002.0 L 352.0 1002.0 L 347.0 1000.0 L 338.0 999.0 L 337.0 998.0 L 329.0 997.0 L 324.0 995.0 L 320.0 995.0 L 319.0 994.0 L 315.0 994.0 L 310.0 992.0 L 306.0 992.0 L 305.0 991.0 L 301.0 991.0 L 296.0 989.0 L 292.0 989.0 L 291.0 988.0 L 287.0 988.0 L 286.0 987.0 L 278.0 986.0 L 277.0 985.0 L 272.0 984.0 L 260.0 977.0 L 249.0 966.0 L 242.0 954.0 L 242.0 952.0 L 240.0 948.0 L 240.0 945.0 L 239.0 944.0 L 239.0 939.0 L 238.0 938.0 L 238.0 927.0 L 239.0 926.0 L 239.0 922.0 L 241.0 917.0 L 241.0 913.0 L 243.0 908.0 L 244.0 899.0 L 246.0 894.0 L 246.0 890.0 L 248.0 885.0 L 248.0 881.0 L 249.0 880.0 L 249.0 877.0 L 251.0 872.0 L 251.0 868.0 L 253.0 863.0 L 253.0 859.0 L 255.0 854.0 L 255.0 850.0 L 257.0 845.0 L 258.0 836.0 L 259.0 835.0 L 259.0 832.0 L 261.0 827.0 L 261.0 823.0 L 263.0 818.0 L 264.0 809.0 L 265.0 808.0 L 265.0 805.0 L 267.0 800.0 L 267.0 796.0 L 268.0 795.0 L 268.0 792.0 L 270.0 787.0 L 271.0 778.0 L 273.0 773.0 L 273.0 769.0 L 274.0 768.0 L 274.0 764.0 L 275.0 763.0 L 276.0 755.0 L 278.0 750.0 L 278.0 746.0 L 279.0 745.0 L 279.0 742.0 L 281.0 737.0 L 282.0 728.0 L 283.0 727.0 L 283.0 724.0 L 285.0 719.0 L 285.0 715.0 L 286.0 714.0 L 286.0 711.0 L 288.0 706.0 L 288.0 702.0 L 289.0 701.0 L 291.0 687.0 L 292.0 686.0 L 292.0 683.0 L 294.0 678.0 L 294.0 674.0 L 296.0 669.0 L 296.0 665.0 L 297.0 664.0 L 297.0 661.0 L 299.0 656.0 L 299.0 652.0 L 300.0 651.0 L 300.0 648.0 L 302.0 643.0 L 302.0 639.0 L 303.0 638.0 L 303.0 634.0 L 305.0 629.0 L 305.0 625.0 L 306.0 624.0 L 306.0 620.0 L 308.0 615.0 L 308.0 611.0 L 310.0 606.0 L 310.0 602.0 L 311.0 601.0 L 311.0 598.0 L 312.0 597.0 L 312.0 594.0 L 314.0 589.0 L 314.0 585.0 L 315.0 584.0 L 315.0 581.0 L 317.0 576.0 L 317.0 572.0 L 318.0 571.0 L 319.0 563.0 L 321.0 558.0 L 323.0 544.0 L 324.0 543.0 L 325.0 535.0 L 327.0 530.0 L 327.0 526.0 L 329.0 521.0 L 329.0 517.0 L 330.0 516.0 L 330.0 513.0 L 332.0 508.0 L 332.0 504.0 L 333.0 503.0 L 333.0 500.0 L 335.0 495.0 L 336.0 486.0 L 338.0 481.0 L 338.0 477.0 L 339.0 476.0 L 339.0 472.0 L 340.0 471.0 L 340.0 468.0 L 342.0 463.0 L 342.0 459.0 L 344.0 454.0 L 344.0 450.0 L 346.0 445.0 L 346.0 441.0 L 347.0 440.0 L 347.0 437.0 L 349.0 432.0 L 349.0 428.0 L 350.0 427.0 L 351.0 419.0 L 353.0 414.0 L 353.0 410.0 L 354.0 409.0 L 354.0 405.0 L 355.0 404.0 L 356.0 396.0 L 358.0 391.0 L 358.0 387.0 L 360.0 382.0 L 360.0 378.0 L 361.0 377.0 L 361.0 374.0 L 363.0 369.0 L 363.0 365.0 L 365.0 360.0 L 365.0 356.0 L 367.0 351.0 L 368.0 342.0 L 370.0 337.0 L 370.0 333.0 L 371.0 332.0 L 371.0 328.0 L 372.0 327.0 L 373.0 319.0 L 375.0 314.0 L 375.0 310.0 L 377.0 305.0 L 377.0 301.0 L 379.0 296.0 L 379.0 292.0 L 380.0 291.0 L 380.0 288.0 L 382.0 283.0 L 382.0 279.0 L 383.0 278.0 L 383.0 274.0 L 385.0 269.0 L 386.0 260.0 L 388.0 255.0 L 388.0 251.0 L 390.0 246.0 L 390.0 242.0 L 392.0 237.0 L 392.0 233.0 L 393.0 232.0 L 393.0 229.0 L 395.0 224.0 L 395.0 220.0 L 397.0 215.0 L 397.0 211.0 L 399.0 206.0 L 399.0 202.0 L 401.0 197.0 L 401.0 193.0 L 402.0 192.0 L 404.0 178.0 L 406.0 173.0 L 406.0 169.0 L 407.0 168.0 L 407.0 165.0 L 408.0 164.0 L 409.0 159.0 L 417.0 145.0 L 428.0 134.0 Z"
        fill="#60A5FA"
        fill-rule="evenodd"/>
</svg>